<?xml version="1.0" encoding="utf-8"?>
<svg xmlns="http://www.w3.org/2000/svg" viewBox="0 0 24 24" width="384" height="384">
  <path d="M12,2C6.477,2,2,6.477,2,12c0,5.523,4.477,10,10,10s10-4.477,10-10C22,6.477,17.523,2,12,2z M12,19c-3.866,0-7-3.134-7-7c0-3.866,3.134-7,7-7s7,3.134,7,7C19,15.866,15.866,19,12,19z" opacity=".35" fill="#B8B8B8" />
  <path d="M14,3c0-1.105-0.895-2-2-2s-2,0.895-2,2c0,0.174,0,2.826,0,3c0,1.105,0.895,2,2,2s2-0.895,2-2C14,5.826,14,3.174,14,3z" fill="#B8B8B8" />
  <path d="M14,18c0-1.105-0.895-2-2-2s-2,0.895-2,2c0,0.174,0,2.826,0,3c0,1.105,0.895,2,2,2s2-0.895,2-2C14,20.826,14,18.174,14,18z" fill="#B8B8B8" />
  <path d="M21,14c1.105,0,2-0.895,2-2s-0.895-2-2-2c-0.174,0-2.826,0-3,0c-1.105,0-2,0.895-2,2s0.895,2,2,2C18.174,14,20.826,14,21,14z" fill="#B8B8B8" />
  <path d="M6,14c1.105,0,2-0.895,2-2s-0.895-2-2-2c-0.174,0-2.826,0-3,0c-1.105,0-2,0.895-2,2s0.895,2,2,2C3.174,14,5.826,14,6,14z" fill="#B8B8B8" />
</svg>