<?xml version="1.0" encoding="utf-8"?>
<svg xmlns="http://www.w3.org/2000/svg" viewBox="0 0 32 32" width="512" height="512">
  <path d="M14 4C10.1 4 7 7.1 7 11C7 13.4 8.1996094 15.600781 10.099609 16.800781C6.4996094 18.300781 4 21.9 4 26L6 26C6 21.6 9.6 18 14 18C15.4 18 16.700781 18.4 17.800781 19C16.700781 20.4 16 22.1 16 24C16 28.4 19.6 32 24 32C28.4 32 32 28.4 32 24C32 19.6 28.4 16 24 16C22.3 16 20.600781 16.6 19.300781 17.5C18.900781 17.2 18.400391 17.000781 17.900391 16.800781C19.800391 15.500781 21 13.4 21 11C21 7.1 17.9 4 14 4 z M 14 6C16.8 6 19 8.2 19 11C19 13.8 16.8 16 14 16C11.2 16 9 13.8 9 11C9 8.2 11.2 6 14 6 z M 24 18C27.3 18 30 20.7 30 24C30 27.3 27.3 30 24 30C20.7 30 18 27.3 18 24C18 20.7 20.7 18 24 18 z M 20 23L20 25L28 25L28 23L20 23 z" fill="#B8B8B8" />
</svg>