<?xml version="1.0" encoding="utf-8"?>
<svg xmlns="http://www.w3.org/2000/svg" viewBox="0 0 24 24" width="480" height="480">
  <path d="M22.1875 0.5L18.0625 8.46875C17.976563 8.433594 17.71875 8.324219 17.6875 8.3125C16.289063 7.710938 14.605469 8.289063 13.90625 9.6875L22.59375 13.59375C23.292969 12.09375 22.585938 10.414063 21.1875 9.8125C21.15625 9.800781 20.917969 9.6875 20.84375 9.65625L24 1.3125 Z M 1.5 2C0.671875 2 0 2.671875 0 3.5C0 4.328125 0.671875 5 1.5 5C2.328125 5 3 4.328125 3 3.5C3 2.671875 2.328125 2 1.5 2 Z M 6 3C5.449219 3 5 3.449219 5 4C5 4.550781 5.449219 5 6 5C6.550781 5 7 4.550781 7 4C7 3.449219 6.550781 3 6 3 Z M 5.5 7C4.121094 7 3 8.121094 3 9.5C3 10.878906 4.121094 12 5.5 12C6.878906 12 8 10.878906 8 9.5C8 8.121094 6.878906 7 5.5 7 Z M 13.125 11.03125C12.152344 12.894531 10.148438 14.046875 8.1875 14.6875C7.207031 15.007813 6.265625 15.207031 5.5 15.3125C4.734375 15.417969 4.09375 15.414063 4 15.40625L2.90625 15.3125L2.90625 16.875L3.125 17.15625C8.640625 23.730469 17.0625 24 17.0625 24L17.5625 24.03125L17.875 23.625C17.875 23.625 20.308594 20.667969 22.15625 15.125L20.25 14.46875C18.707031 19.097656 17.046875 21.355469 16.625 21.90625C16.355469 21.890625 15.425781 21.785156 14.125 21.4375C14.550781 20.9375 15.238281 19.964844 16 18.1875C13.957031 20.050781 12.636719 20.5625 11.90625 20.6875C11.148438 20.386719 10.355469 20.027344 9.53125 19.5625C9.898438 19.199219 10.40625 18.578125 11 17.5C10.210938 18.351563 9.132813 18.714844 8.375 18.875C7.648438 18.394531 6.929688 17.832031 6.21875 17.1875C7.003906 17.0625 7.863281 16.90625 8.8125 16.59375C11.050781 15.859375 13.550781 14.503906 14.875 11.96875Z" fill="#B8B8B8" />
</svg>