<?xml version="1.0" encoding="utf-8"?>
<svg xmlns="http://www.w3.org/2000/svg" viewBox="0 0 26 26" width="208" height="208">
  <path d="M8 0C5.796875 0 4 1.796875 4 4L4 11L1 11C0.449219 11 0 11.449219 0 12L0 18C0 18.550781 0.449219 19 1 19L4 19L4 22C4 24.203125 5.796875 26 8 26L20 26C22.203125 26 24 24.203125 24 22L24 8C24 6.9375 23.027344 5.929688 21.28125 4.21875C21.039063 3.980469 20.777344 3.714844 20.53125 3.46875C20.285156 3.222656 20.019531 2.992188 19.78125 2.75C18.070313 1.003906 17.0625 0 16 0 Z M 8 2L15.28125 2C16.003906 2.183594 16 3.050781 16 3.9375L16 7C16 7.550781 16.449219 8 17 8L20 8C20.996094 8 22 8.003906 22 9L22 22C22 23.105469 21.105469 24 20 24L8 24C6.894531 24 6 23.105469 6 22L6 19L18 19C18.550781 19 19 18.550781 19 18L19 12C19 11.449219 18.550781 11 18 11L6 11L6 4C6 2.894531 6.894531 2 8 2 Z M 9.75 11.84375C10.285156 11.84375 10.765625 11.949219 11.15625 12.15625C11.222656 12.191406 11.238281 12.273438 11.21875 12.34375L10.96875 13.40625C10.957031 13.453125 10.921875 13.480469 10.875 13.5C10.828125 13.519531 10.761719 13.523438 10.71875 13.5C10.550781 13.402344 10.191406 13.25 9.71875 13.25C9.359375 13.25 9.125 13.382813 9.125 13.625C9.125 13.871094 9.308594 14.023438 10 14.3125C10.980469 14.71875 11.4375 15.3125 11.4375 16.1875C11.4375 17.089844 10.84375 18.15625 9.1875 18.15625C8.546875 18.15625 7.925781 17.9375 7.625 17.75C7.566406 17.714844 7.546875 17.660156 7.5625 17.59375L7.8125 16.5C7.824219 16.449219 7.859375 16.425781 7.90625 16.40625C7.957031 16.386719 7.988281 16.378906 8.03125 16.40625C8.308594 16.570313 8.78125 16.75 9.25 16.75C9.496094 16.75 9.90625 16.6875 9.90625 16.28125C9.90625 16.046875 9.796875 15.875 9.15625 15.625C8.136719 15.21875 7.625 14.585938 7.625 13.75C7.625 12.632813 8.5 11.84375 9.75 11.84375 Z M 4.84375 11.9375C5.492188 11.9375 5.96875 12.054688 6.1875 12.1875C6.246094 12.222656 6.265625 12.308594 6.25 12.375L6.03125 13.375C6.019531 13.421875 5.980469 13.449219 5.9375 13.46875C5.894531 13.488281 5.824219 13.488281 5.78125 13.46875C5.597656 13.378906 5.3125 13.28125 4.90625 13.28125C4 13.28125 3.46875 13.925781 3.46875 15C3.46875 16.058594 3.996094 16.6875 4.90625 16.6875C5.226563 16.6875 5.597656 16.632813 5.8125 16.53125C5.855469 16.511719 5.894531 16.507813 5.9375 16.53125C5.980469 16.554688 6.023438 16.609375 6.03125 16.65625L6.1875 17.65625C6.199219 17.722656 6.183594 17.78125 6.125 17.8125C5.882813 17.941406 5.355469 18.09375 4.75 18.09375C3.046875 18.09375 1.9375 16.914063 1.9375 15.09375C1.9375 13.203125 3.097656 11.9375 4.84375 11.9375 Z M 12.625 11.96875L13.90625 11.96875C13.976563 11.96875 14.042969 12.023438 14.0625 12.09375L14.6875 14.5C14.804688 14.957031 14.90625 15.402344 15 15.84375C15.09375 15.417969 15.195313 14.972656 15.3125 14.53125L15.96875 12.09375C15.988281 12.023438 16.050781 11.96875 16.125 11.96875L17.375 11.96875C17.425781 11.96875 17.46875 11.992188 17.5 12.03125C17.53125 12.070313 17.515625 12.109375 17.5 12.15625L15.78125 17.90625C15.761719 17.972656 15.695313 18.03125 15.625 18.03125L14.28125 18.03125C14.210938 18.03125 14.144531 17.972656 14.125 17.90625L12.46875 12.15625C12.453125 12.109375 12.46875 12.070313 12.5 12.03125C12.53125 11.992188 12.574219 11.96875 12.625 11.96875Z" fill="#A6A6A6" />
</svg>