<?xml version="1.0" encoding="utf-8"?>
<svg xmlns="http://www.w3.org/2000/svg" viewBox="0 0 24 24" width="384" height="384">
  <path d="M11.489,10.446V5.136l-0.505,0.381c-0.406,0.306-0.988,0.187-1.24-0.254v0C9.532,4.89,9.632,4.417,9.979,4.163l1.381-1.011c0.217-0.159,0.478-0.244,0.747-0.244h0c0.698,0,1.264,0.566,1.264,1.264v6.275c0,0.519-0.421,0.94-0.94,0.94h0C11.91,11.387,11.489,10.966,11.489,10.446z" fill="#B8B8B8" />
  <path d="M8.133,7.191c0,0.479,0.085,4.419-2.79,4.419s-2.779-3.94-2.779-4.419S2.508,2.772,5.343,2.772S8.133,6.712,8.133,7.191z M6.218,7.191c0-0.28,0.067-2.731-0.875-2.731S4.469,6.912,4.469,7.191c0,0.288-0.028,2.731,0.874,2.731S6.218,7.479,6.218,7.191z" opacity=".35" fill="#B8B8B8" />
  <path d="M21.341,7.191c0,0.479,0.085,4.419-2.79,4.419s-2.779-3.94-2.779-4.419s-0.056-4.419,2.779-4.419C21.386,2.772,21.341,6.712,21.341,7.191z M19.426,7.191c0-0.28,0.067-2.731-0.875-2.731c-0.942,0-0.874,2.451-0.874,2.731c0,0.288-0.028,2.731,0.874,2.731C19.452,9.922,19.426,7.479,19.426,7.191z" opacity=".35" fill="#B8B8B8" />
  <path d="M14.696,17.487c0,0.479,0.085,4.419-2.79,4.419s-2.779-3.94-2.779-4.419c0-0.479-0.056-4.419,2.779-4.419S14.696,17.008,14.696,17.487z M12.781,17.487c0-0.28,0.067-2.731-0.875-2.731s-0.874,2.451-0.874,2.731c0,0.288-0.028,2.731,0.874,2.731S12.781,17.775,12.781,17.487z" opacity=".35" fill="#B8B8B8" />
  <path d="M18.455,20.786v-5.311l-0.505,0.381c-0.406,0.306-0.988,0.187-1.24-0.254l0,0c-0.213-0.373-0.113-0.846,0.234-1.099l1.381-1.011c0.217-0.159,0.478-0.244,0.747-0.244h0c0.698,0,1.264,0.566,1.264,1.264v6.275c0,0.519-0.421,0.94-0.94,0.94h0C18.876,21.727,18.455,21.306,18.455,20.786z" fill="#B8B8B8" />
  <path d="M4.592,20.83V15.52l-0.505,0.381c-0.406,0.306-0.988,0.187-1.24-0.254l0,0c-0.213-0.373-0.113-0.846,0.234-1.099l1.381-1.011c0.217-0.159,0.478-0.244,0.747-0.244h0c0.698,0,1.264,0.566,1.264,1.264v6.275c0,0.519-0.421,0.94-0.94,0.94h0C5.013,21.771,4.592,21.35,4.592,20.83z" fill="#B8B8B8" />
</svg>