<?xml version="1.0" encoding="utf-8"?>
<svg xmlns="http://www.w3.org/2000/svg" viewBox="0 0 48 48" width="144" height="144">
  <path d="M8.5 8C6.0324991 8 4 10.032499 4 12.5L4 36.40625L4.015625 36.40625C3.9865145 38.276932 5.5083888 40 7.5019531 40L36.546875 40C38.416875 40 40.10278 38.832994 40.759766 37.082031L45.767578 23.75L45.767578 23.746094C46.62354 21.501657 44.900814 19 42.498047 19L42 19L42 17.5C42 15.032499 39.967501 13 37.5 13L24.042969 13L19.574219 9.2753906 A 1.50015 1.50015 0 0 0 19.572266 9.2753906C18.584102 8.4521105 17.339162 8 16.052734 8L8.5 8 z M 8.5 11L16.052734 11C16.638307 11 17.202555 11.205358 17.652344 11.580078L22.539062 15.652344 A 1.50015 1.50015 0 0 0 23.5 16L37.5 16C38.346499 16 39 16.653501 39 17.5L39 19L13.453125 19C11.583125 19 9.8972196 20.167006 9.2402344 21.917969L7 27.882812L7 12.5C7 11.653501 7.6535009 11 8.5 11 z M 13.453125 22L42.498047 22C42.897907 22 43.107444 22.305152 42.964844 22.677734 A 1.50015 1.50015 0 0 0 42.960938 22.6875L37.951172 36.027344C37.730157 36.616381 37.176875 37 36.546875 37L7.5019531 37C7.1042373 37 6.8935735 36.697099 7.0332031 36.326172 A 1.50015 1.50015 0 0 0 7.0351562 36.324219L12.048828 22.972656C12.269843 22.383619 12.823125 22 13.453125 22 z" fill="#B8B8B8" />
</svg>