<?xml version="1.0" encoding="utf-8"?>
<svg xmlns="http://www.w3.org/2000/svg" viewBox="0 0 24 24" width="384" height="384">
  <path d="M14,7V3l6,6h-4C14.895,9,14,8.105,14,7z" fill="#B8B8B8" />
  <path d="M21.828,16.172c-0.524-0.524-1.16-0.856-1.828-1.028V9l-6-6H7C5.343,3,4,4.343,4,6v12c0,1.657,1.343,3,3,3h8.553c0.171,0.294,0.367,0.577,0.618,0.828c1.562,1.562,4.095,1.562,5.657,0C23.391,20.266,23.391,17.734,21.828,16.172z" opacity=".35" fill="#B8B8B8" />
  <path d="M17.625,11.219c-0.432-0.346-1.059-0.274-1.406,0.156l-2.074,2.594c1.027-0.992,2.356-1.668,3.833-1.885 C18.005,11.763,17.895,11.436,17.625,11.219z" fill="#B8B8B8" />
  <path d="M11.269,13.359c-0.188-0.224-0.464-0.355-0.757-0.359c-0.319,0.01-0.573,0.12-0.765,0.342l-3.5,4 c-0.363,0.415-0.321,1.047,0.095,1.411C6.531,18.919,6.766,19,7,19c0.278,0,0.555-0.115,0.753-0.342l2.729-3.118l1.672,2.007 c0.167-0.787,0.831-2.128,0.831-2.128L11.269,13.359z" fill="#B8B8B8" />
  <path d="M19,14c-2.76,0-5,2.24-5,5s2.24,5,5,5s5-2.24,5-5S21.76,14,19,14z M21.5,20H20v1.5c0,0.55-0.45,1-1,1s-1-0.45-1-1V20h-1.5c-0.55,0-1-0.45-1-1s0.45-1,1-1H18v-1.5c0-0.55,0.45-1,1-1s1,0.45,1,1V18h1.5c0.55,0,1,0.45,1,1S22.05,20,21.5,20z" fill="#B8B8B8" />
</svg>