<?xml version="1.0" encoding="utf-8"?>
<svg xmlns="http://www.w3.org/2000/svg" viewBox="0 0 32 32" width="512" height="512">
  <path d="M16 4C14.082031 4 12.421875 4.871094 11.15625 6.125C10.9375 6.078125 10.734375 6 10.5 6C8.578125 6 7 7.578125 7 9.5C7 9.652344 7.042969 9.765625 7.0625 9.90625C5.878906 10.71875 5 11.964844 5 13.5C5 15.972656 7.027344 18 9.5 18L22.5 18C24.972656 18 27 15.972656 27 13.5C27 11.058594 25.019531 9.085938 22.59375 9.03125C21.726563 6.148438 19.15625 4 16 4 Z M 16 6C18.503906 6 20.558594 7.828125 20.9375 10.21875L21.09375 11.21875L22.09375 11.03125C22.265625 11.003906 22.390625 11 22.5 11C23.890625 11 25 12.109375 25 13.5C25 14.890625 23.890625 16 22.5 16L9.5 16C8.109375 16 7 14.890625 7 13.5C7 12.457031 7.636719 11.566406 8.53125 11.1875L9.375 10.84375L9.09375 9.96875C9.035156 9.792969 9 9.640625 9 9.5C9 8.660156 9.660156 8 10.5 8C10.675781 8 10.851563 8.023438 11.03125 8.09375L11.6875 8.34375L12.15625 7.8125C13.074219 6.707031 14.445313 6 16 6 Z M 3 21L3 29L29 29L29 21 Z M 5 23L27 23L27 27L5 27 Z M 8 24C7.449219 24 7 24.449219 7 25C7 25.550781 7.449219 26 8 26C8.550781 26 9 25.550781 9 25C9 24.449219 8.550781 24 8 24 Z M 11 24L11 26L25 26L25 24Z" fill="#B8B8B8" />
</svg>