<?xml version="1.0" encoding="utf-8"?>
<svg xmlns="http://www.w3.org/2000/svg" viewBox="0 0 50 50" width="500" height="500">
  <path d="M25 1C23.925781 1 22.855469 1.105469 22 1.3125C21.570313 1.414063 21.222656 1.527344 20.875 1.71875C20.699219 1.8125 20.515625 1.9375 20.34375 2.125C20.253906 2.226563 20.160156 2.371094 20.09375 2.53125C19.460938 2.667969 18.832031 2.84375 18.21875 3.03125C17.746094 2.839844 16.148438 2.226563 13.96875 2.09375C13.648438 2.074219 13.3125 2.058594 12.96875 2.0625C10.574219 2.097656 7.75 2.8125 5.28125 5.28125C0.0234375 10.539063 2.648438 17.34375 3.03125 18.25C2.847656 18.855469 2.667969 19.46875 2.53125 20.09375C2.371094 20.160156 2.226563 20.253906 2.125 20.34375C1.9375 20.515625 1.8125 20.699219 1.71875 20.875C1.527344 21.222656 1.414063 21.570313 1.3125 22C1.105469 22.855469 1 23.925781 1 25C1 26.074219 1.105469 27.144531 1.3125 28C1.414063 28.429688 1.527344 28.777344 1.71875 29.125C1.8125 29.300781 1.9375 29.484375 2.125 29.65625C2.226563 29.746094 2.371094 29.839844 2.53125 29.90625C2.667969 30.535156 2.84375 31.140625 3.03125 31.75C2.648438 32.65625 0.0234375 39.460938 5.28125 44.71875C10.539063 49.976563 17.34375 47.351563 18.25 46.96875C18.84375 47.152344 19.449219 47.304688 20.0625 47.4375C20.128906 47.617188 20.246094 47.765625 20.34375 47.875C20.515625 48.0625 20.699219 48.1875 20.875 48.28125C21.222656 48.472656 21.570313 48.585938 22 48.6875C22.855469 48.894531 23.925781 49 25 49C26.074219 49 27.144531 48.894531 28 48.6875C28.429688 48.585938 28.777344 48.472656 29.125 48.28125C29.300781 48.1875 29.484375 48.0625 29.65625 47.875C29.746094 47.773438 29.839844 47.628906 29.90625 47.46875C30.53125 47.332031 31.144531 47.15625 31.75 46.96875C32.65625 47.351563 39.460938 49.976563 44.71875 44.71875C49.921875 39.515625 47.394531 32.804688 46.96875 31.78125C47.160156 31.167969 47.332031 30.542969 47.46875 29.90625C47.628906 29.839844 47.773438 29.746094 47.875 29.65625C48.0625 29.484375 48.1875 29.300781 48.28125 29.125C48.472656 28.777344 48.585938 28.429688 48.6875 28C48.894531 27.144531 49 26.074219 49 25C49 23.925781 48.894531 22.855469 48.6875 22C48.585938 21.570313 48.472656 21.222656 48.28125 20.875C48.1875 20.699219 48.0625 20.515625 47.875 20.34375C47.773438 20.253906 47.628906 20.160156 47.46875 20.09375C47.332031 19.464844 47.15625 18.859375 46.96875 18.25C47.351563 17.34375 49.976563 10.539063 44.71875 5.28125C42.25 2.8125 39.425781 2.097656 37.03125 2.0625C36.6875 2.058594 36.351563 2.074219 36.03125 2.09375C33.800781 2.226563 32.171875 2.859375 31.75 3.03125C31.148438 2.847656 30.53125 2.667969 29.90625 2.53125C29.839844 2.371094 29.746094 2.226563 29.65625 2.125C29.484375 1.9375 29.300781 1.8125 29.125 1.71875C28.777344 1.527344 28.429688 1.414063 28 1.3125C27.144531 1.105469 26.074219 1 25 1 Z M 25 3C25.925781 3 26.855469 3.09375 27.5 3.25C27.734375 3.308594 27.875 3.386719 28 3.4375L28 13.125C27.84375 13.378906 27.8125 13.6875 27.90625 13.96875C27.59375 13.859375 26.753906 13.59375 25 13.59375C23.144531 13.59375 22.296875 13.90625 22.03125 14C22.136719 13.738281 22.125 13.441406 22 13.1875L22 3.875C22.105469 3.726563 22.171875 3.554688 22.1875 3.375C22.28125 3.332031 22.351563 3.285156 22.5 3.25C23.144531 3.09375 24.074219 3 25 3 Z M 13.09375 4.03125C13.875 4.019531 14.589844 4.070313 15.21875 4.1875C10.386719 6.464844 6.464844 10.355469 4.1875 15.1875C3.785156 12.972656 3.84375 9.59375 6.71875 6.71875C8.789063 4.648438 11.121094 4.058594 13.09375 4.03125 Z M 36.09375 4.03125C38.214844 3.894531 40.917969 4.355469 43.28125 6.71875C46.171875 9.609375 46.222656 13.003906 45.8125 15.21875C43.539063 10.390625 39.640625 6.464844 34.8125 4.1875C35.207031 4.117188 35.636719 4.0625 36.09375 4.03125 Z M 20 4.59375L20 13C16.84375 14.316406 14.347656 16.84375 13.03125 20L4.59375 20C6.445313 12.417969 12.417969 6.445313 20 4.59375 Z M 30 4.625C37.570313 6.476563 43.523438 12.429688 45.375 20L37 20C35.683594 16.84375 33.15625 14.351563 30 13.03125 Z M 20.3125 15.0625C20.667969 15.628906 21.292969 16 22 16C22.128906 16.003906 22.253906 15.980469 22.375 15.9375C22.375 15.9375 23.136719 15.59375 25 15.59375C26.863281 15.59375 27.625 15.9375 27.625 15.9375C27.746094 15.980469 27.871094 16.003906 28 16C28.707031 16 29.332031 15.628906 29.6875 15.0625C31.992188 16.152344 33.847656 18.007813 34.9375 20.3125C34.371094 20.667969 34 21.292969 34 22C33.996094 22.128906 34.019531 22.253906 34.0625 22.375C34.0625 22.375 34.40625 23.136719 34.40625 25C34.40625 26.863281 34.0625 27.625 34.0625 27.625C34.019531 27.746094 33.996094 27.871094 34 28C34 28.707031 34.371094 29.332031 34.9375 29.6875C33.847656 31.988281 31.996094 33.851563 29.6875 34.9375C29.332031 34.371094 28.707031 34 28 34C27.871094 33.996094 27.746094 34.019531 27.625 34.0625C27.625 34.0625 26.863281 34.40625 25 34.40625C23.136719 34.40625 22.375 34.0625 22.375 34.0625C22.253906 34.019531 22.128906 33.996094 22 34C21.285156 34 20.667969 34.390625 20.3125 34.96875C18.015625 33.878906 16.148438 31.992188 15.0625 29.6875C15.628906 29.332031 16 28.707031 16 28C16.003906 27.871094 15.980469 27.746094 15.9375 27.625C15.9375 27.625 15.59375 26.863281 15.59375 25C15.59375 23.136719 15.9375 22.375 15.9375 22.375C15.980469 22.253906 16.003906 22.128906 16 22C16 21.304688 15.644531 20.671875 15.09375 20.3125C16.179688 18.011719 18.007813 16.148438 20.3125 15.0625 Z M 3.59375 22L14 22C13.914063 22.242188 13.59375 23.101563 13.59375 25C13.59375 26.753906 13.859375 27.59375 13.96875 27.90625C13.820313 27.847656 13.660156 27.828125 13.5 27.84375C13.34375 27.859375 13.195313 27.914063 13.0625 28L3.4375 28C3.386719 27.875 3.308594 27.734375 3.25 27.5C3.09375 26.855469 3 25.925781 3 25C3 24.074219 3.09375 23.144531 3.25 22.5C3.304688 22.277344 3.386719 22.148438 3.4375 22.03125C3.492188 22.023438 3.542969 22.015625 3.59375 22 Z M 36 22L46.5625 22C46.613281 22.125 46.691406 22.265625 46.75 22.5C46.90625 23.144531 47 24.074219 47 25C47 25.925781 46.90625 26.855469 46.75 27.5C46.707031 27.675781 46.671875 27.773438 46.625 27.875C46.59375 27.875 46.5625 27.875 46.53125 27.875C46.398438 27.890625 46.273438 27.933594 46.15625 28L36 28C36.085938 27.757813 36.40625 26.898438 36.40625 25C36.40625 23.101563 36.085938 22.242188 36 22 Z M 4.625 30L13.03125 30C14.347656 33.148438 16.847656 35.652344 20 36.96875L20 45.375C12.429688 43.519531 6.476563 37.574219 4.625 30 Z M 36.96875 30L45.40625 30C43.554688 37.585938 37.585938 43.554688 30 45.40625L30 37C33.148438 35.679688 35.652344 33.152344 36.96875 30 Z M 45.8125 34.78125C46.222656 36.996094 46.171875 40.390625 43.28125 43.28125C40.390625 46.171875 36.996094 46.222656 34.78125 45.8125C39.621094 43.535156 43.53125 39.613281 45.8125 34.78125 Z M 4.1875 34.8125C6.46875 39.636719 10.386719 43.542969 15.21875 45.8125C13.003906 46.222656 9.609375 46.171875 6.71875 43.28125C3.84375 40.40625 3.785156 37.027344 4.1875 34.8125 Z M 28 36C27.917969 36.222656 27.917969 36.464844 28 36.6875L28 46.21875C27.945313 46.335938 27.914063 46.464844 27.90625 46.59375C27.796875 46.640625 27.691406 46.703125 27.5 46.75C26.855469 46.90625 25.925781 47 25 47C24.074219 47 23.144531 46.90625 22.5 46.75C22.324219 46.707031 22.226563 46.671875 22.125 46.625C22.121094 46.460938 22.078125 46.300781 22 46.15625L22 36.96875C22.195313 36.695313 22.242188 36.34375 22.125 36.03125C22.457031 36.144531 23.289063 36.40625 25 36.40625C26.898438 36.40625 27.757813 36.085938 28 36Z" fill="#B8B8B8" />
</svg>