<?xml version="1.0" encoding="utf-8"?>
<svg xmlns="http://www.w3.org/2000/svg" viewBox="0 0 50 50" width="500" height="500">
  <path d="M25 1.9785156L25 2C12.309295 2 2 12.309295 2 25C2 37.690705 12.309295 48 25 48L25 48.019531L25.972656 47.976562C26.323738 47.961888 26.672661 47.936536 27.019531 47.90625C27.088346 47.9003 27.157931 47.897172 27.226562 47.890625C27.487415 47.86549 27.745659 47.830671 28.003906 47.796875C28.129434 47.78062 28.256005 47.768247 28.380859 47.75C28.606895 47.716612 28.830831 47.676647 29.054688 47.636719C29.207743 47.609704 29.36172 47.584683 29.513672 47.554688C29.67171 47.523167 29.827517 47.485919 29.984375 47.451172C30.238921 47.39535 30.492948 47.339492 30.744141 47.275391C30.767752 47.269307 30.790871 47.262016 30.814453 47.255859C40.019434 44.875535 46.909053 36.986977 47.880859 27.349609C47.880859 27.349609 47.880859 27.347656 47.880859 27.347656C47.919698 26.962166 47.95103 26.57247 47.970703 26.181641C47.970867 26.178405 47.97054 26.17511 47.970703 26.171875C47.990098 25.783345 48 25.393326 48 25C48 24.603381 47.990422 24.2101 47.970703 23.818359C47.96791 23.763362 47.962164 23.709192 47.958984 23.654297C47.939737 23.319014 47.91424 22.981704 47.880859 22.650391C47.880326 22.645145 47.879443 22.64001 47.878906 22.634766C46.898676 12.979843 39.979582 5.0819939 30.744141 2.7246094C30.735139 2.7222902 30.725803 2.7210586 30.716797 2.71875C30.448117 2.6505178 30.176798 2.588054 29.904297 2.5292969C29.788284 2.5040377 29.673297 2.4766228 29.556641 2.453125C29.350437 2.4119951 29.141829 2.377426 28.933594 2.3417969C28.750384 2.3101336 28.567472 2.277292 28.382812 2.25C28.257318 2.2316391 28.130081 2.2194731 28.003906 2.203125C27.745659 2.1693286 27.487415 2.1345097 27.226562 2.109375C27.144351 2.1015263 27.06099 2.0968356 26.978516 2.0898438C26.668855 2.0633622 26.357939 2.0394473 26.044922 2.0253906L25 1.9785156 z M 25 4L25 46C13.390176 46 4 36.609824 4 25C4 13.390176 13.390176 4 25 4 z M 27 8.109375C29.719 8.418375 32.543156 9.4454375 35.285156 11.148438C35.753156 11.440437 35.898422 12.057344 35.607422 12.527344C35.417422 12.832344 35.089859 12.998047 34.755859 12.998047C34.575859 12.998047 34.393516 12.951609 34.228516 12.849609C31.808516 11.344609 29.345 10.425094 27 10.121094L27 8.109375 z M 23 8.1308594C20.358 8.4668594 17.610547 9.4873906 14.935547 11.150391C14.466547 11.442391 14.324234 12.057344 14.615234 12.527344C14.906234 12.997344 15.521187 13.138609 15.992188 12.849609C18.324188 11.399609 20.697 10.491297 23 10.154297L23 8.1308594 z M 27 12.123047C31.797 12.652047 36.214125 14.904328 39.078125 18.361328C39.431125 18.786328 39.372266 19.417531 38.947266 19.769531C38.760266 19.924531 38.535547 20 38.310547 20C38.021547 20 37.736063 19.876719 37.539062 19.636719C35.045063 16.629719 31.202 14.650719 27 14.136719L27 12.123047 z M 23 12.134766C18.258 12.692766 13.902406 14.939328 11.066406 18.361328C10.714406 18.786328 10.773219 19.417531 11.199219 19.769531C11.625219 20.121531 12.255422 20.063719 12.607422 19.636719C15.071422 16.663719 18.855 14.700203 23 14.158203L23 12.134766 z M 27 16.132812C34.098 17.068812 38 23.276641 38 27.681641C38 30.224641 36.743828 32.47125 34.798828 33.40625C34.189828 33.69925 33.545531 33.84375 32.894531 33.84375C31.769531 33.84375 30.6175 33.413313 29.5625 32.570312C28.2695 31.360312 27.8285 29.901281 27.4375 28.613281C27.2825 28.103281 27.146 27.683031 27 27.332031L27 24.419922C28.471 25.150922 28.948609 26.710203 29.349609 28.033203C29.682609 29.131203 30.028094 30.268547 30.871094 31.060547C31.882094 31.864547 32.961641 32.069469 33.931641 31.605469C35.168641 31.009469 36 29.432641 36 27.681641C36 24.025641 32.616 19.076109 27 18.162109L27 16.132812 z M 23 16.173828C18.178 16.855828 15.565406 19.37 14.191406 21.5C11.505406 25.667 11.527109 31.383484 12.912109 34.646484C13.129109 35.155484 13.716609 35.388781 14.224609 35.175781C14.733609 34.959781 14.971859 34.372281 14.755859 33.863281C13.740859 31.473281 13.417047 26.393984 15.873047 22.583984C17.429047 20.168984 19.834 18.713984 23 18.208984L23 16.173828 z M 22.998047 20.222656C22.397047 20.356656 21.768422 20.552031 21.107422 20.832031C18.214422 22.059031 16.478938 24.452906 16.085938 27.753906C15.414938 33.391906 18.842125 40.237687 20.953125 41.804688C21.133125 41.936687 21.343781 42 21.550781 42C21.856781 42 22.158469 41.859703 22.355469 41.595703C22.683469 41.152703 22.589484 40.526266 22.146484 40.197266C20.681484 39.110266 17.468266 33.066234 18.072266 27.990234C18.380266 25.405234 19.663672 23.616828 21.888672 22.673828C22.265672 22.513828 22.633047 22.392062 22.998047 22.289062L22.998047 20.222656 z M 27 20.259766C28.474 20.635766 29.839672 21.426141 31.013672 22.619141C33.013672 24.651141 34.029 27.376531 34 29.019531C33.99 29.564531 33.544 30 33 30L32.980469 30C32.429469 29.99 31.99 29.533469 32 28.980469C32.019 27.958469 31.282891 25.742484 29.587891 24.021484C28.800891 23.221484 27.933 22.662891 27 22.337891L27 20.259766 z M 23.001953 24.330078C21.951953 24.708078 21.284812 25.349828 20.882812 25.923828C19.708813 27.600828 19.612047 30.256297 20.623047 33.029297C20.898047 33.785297 21.62 35.481234 23 37.240234L23 33.494141C22.809 33.101141 22.636953 32.71475 22.501953 32.34375C21.726953 30.21575 21.732484 28.194359 22.521484 27.068359C22.655484 26.877359 22.818953 26.716172 23.001953 26.576172L23.001953 24.330078 z M 27 32.191406C28.099 33.946406 30.187062 35.986859 34.039062 36.380859C34.589062 36.437859 34.988594 36.926563 34.933594 37.476562C34.880594 37.990562 34.446453 38.375 33.939453 38.375C33.904453 38.375 33.869938 38.372141 33.835938 38.369141C30.683938 38.047141 28.5 36.774547 27 35.310547L27 32.191406 z M 27 38.347656C27.747 38.894656 28.537906 39.356219 29.378906 39.699219C29.889906 39.908219 30.134781 40.491906 29.925781 41.003906C29.767781 41.390906 29.394 41.625 29 41.625C28.874 41.625 28.745094 41.601781 28.621094 41.550781C28.061094 41.321781 27.525 41.040375 27 40.734375L27 38.347656 z" fill="#A6A6A6" />
</svg>