<?xml version="1.0" encoding="utf-8"?>
<svg xmlns="http://www.w3.org/2000/svg" viewBox="0 0 26 26" width="208" height="208">
  <path d="M1.8125 0C1.335938 0.0898438 0.992188 0.511719 1 1L1 25C1 25.550781 1.449219 26 2 26L17 26C17.550781 26 18 25.550781 18 25L18 20L16 20L16 24L3 24L3 2L16 2L16 6L18 6L18 1C18 0.449219 17.550781 0 17 0L2 0C1.96875 0 1.9375 0 1.90625 0C1.875 0 1.84375 0 1.8125 0 Z M 13.34375 8.03125C13.234375 8.035156 13.125 8.09375 13.03125 8.15625C10.609375 9.792969 8.273438 12.515625 8.1875 12.625C8.097656 12.734375 8.03125 12.863281 8.03125 13C8.03125 13.136719 8.097656 13.261719 8.1875 13.375C8.273438 13.484375 10.609375 16.207031 13.03125 17.84375C13.21875 17.972656 13.457031 17.980469 13.65625 17.875C13.855469 17.769531 13.96875 17.570313 13.96875 17.34375L13.96875 15.03125C13.96875 15.03125 24.21875 14.65625 24.4375 14.5C24.757813 14.273438 24.96875 13.613281 24.96875 13C24.96875 12.382813 24.757813 11.632813 24.4375 11.40625C24.21875 11.25 13.96875 10.96875 13.96875 10.96875L13.96875 8.65625C13.96875 8.429688 13.855469 8.230469 13.65625 8.125C13.558594 8.070313 13.453125 8.027344 13.34375 8.03125Z" fill="#B8B8B8" />
</svg>