<?xml version="1.0" encoding="utf-8"?>
<svg xmlns="http://www.w3.org/2000/svg" viewBox="0 0 24 24" width="480" height="480">
  <path d="M6 2C4.895 2 4 2.895 4 4L4 9L3 9C1.895 9 1 9.895 1 11L1 16C1 17.105 1.895 18 3 18L4 18L4 20C4 21.105 4.895 22 6 22L18 22C19.105 22 20 21.105 20 20L20 18C21.105 18 22 17.105 22 16L22 11C22 9.895 21.105 9 20 9L20 7L15 2L6 2 z M 6 4L14 4L14 8L18 8L18 9L6 9L6 4 z M 5 11L6 11L6 14.5C6 15.328 5.328 16 4.5 16C3.672 16 3 15.328 3 14.5L4 14.5C4 14.776 4.224 15 4.5 15C4.776 15 5 14.776 5 14.5L5 11 z M 8.6445312 11C10.067531 11.041 10.154297 12.282906 10.154297 12.503906L9.1875 12.503906C9.1875 12.400906 9.2049062 11.806641 8.6289062 11.806641C8.4539062 11.806641 8.0598438 11.884188 8.0898438 12.367188C8.1188437 12.810188 8.7035469 13.019406 8.8105469 13.066406C9.0345469 13.148406 10.141391 13.642391 10.150391 14.650391C10.152391 14.864391 10.097062 15.985 8.6640625 16C7.1050625 16.017 7 14.675438 7 14.398438L7.9746094 14.398438C7.9746094 14.545438 7.9870625 15.256172 8.6640625 15.201172C9.0710625 15.167172 9.1598281 14.87425 9.1738281 14.65625C9.1968281 14.28925 8.8465625 14.068625 8.4765625 13.890625C7.9565625 13.640625 7.1341406 13.333375 7.1191406 12.359375C7.1061406 11.482375 7.7505312 10.975 8.6445312 11 z M 19 11L20 11L20 16L18.845703 16L17 12.736328L17 16L16 16L16 11.023438L17.154297 11.023438L19 14.267578L19 11 z M 13 11.064453C14.864 11.034453 15 12.841406 15 13.191406L15 14C15 14.342 14.913812 16.101547 13.007812 16.060547C10.966813 16.018547 11 14.342 11 14L11 13.191406C11 12.840406 11.167 11.093453 13 11.064453 z M 13.001953 11.886719C12.056953 11.905719 12 12.953547 12 13.185547L12 14C12 14.222 12.154719 15.259187 13.011719 15.242188C13.833719 15.227187 14 14.221 14 14L14 13.185547C14 12.953547 13.887953 11.868719 13.001953 11.886719 z M 6 18L18 18L18 20L6 20L6 18 z" fill="#A6A6A6" />
</svg>