<?xml version="1.0" encoding="utf-8"?>
<svg xmlns="http://www.w3.org/2000/svg" viewBox="0 0 32 32" width="512" height="512">
  <path d="M7 6C5.9069372 6 5 6.9069372 5 8L5 19.585938L2.7070312 21.878906C2.2540644 22.331873 2 22.947825 2 23.585938C2 24.90727 3.0927296 26 4.4140625 26L27.585938 26C28.90727 26 30 24.90727 30 23.585938L30 22.585938L29.585938 22.585938C29.470513 22.352377 29.480594 22.066531 29.292969 21.878906L27 19.585938L27 8C27 6.9069372 26.093063 6 25 6L7 6 z M 7 8L25 8L25 19L7 19L7 8 z M 21 9.5859375L16 14.585938L12 10.585938L8.2929688 14.292969L9.7070312 15.707031L12 13.414062L16 17.414062L21 12.414062L22.292969 13.707031L23.707031 12.292969L21 9.5859375 z M 6.4140625 21L25.585938 21L27.878906 23.292969C27.957939 23.372002 28 23.474049 28 23.585938C28 23.826605 27.826605 24 27.585938 24L4.4140625 24C4.1733954 24 4 23.826605 4 23.585938C4 23.474049 4.0420606 23.372002 4.1210938 23.292969L6.4140625 21 z" fill="#B8B8B8" />
</svg>