<?xml version="1.0" encoding="utf-8"?>
<svg xmlns="http://www.w3.org/2000/svg" viewBox="0 0 50 50" width="500" height="500">
  <path d="M15.5 0C14.672 0 14 0.672 14 1.5L14 7.5C14 8.328 14.672 9 15.5 9L28.5 9C29.328 9 30 8.328 30 7.5L30 1.5C30 0.672 29.328 0 28.5 0L15.5 0 z M 6 2C4.346 2 3 3.346 3 5L3 43C3 44.654 4.346 46 6 46L15 46L15 41L8 41L8 7L12 7L12 2L6 2 z M 32 2L32 7L36 7L36 13L41 13L41 5C41 3.346 39.654 2 38 2L32 2 z M 18 15C17.448 15 17 15.448 17 16L17 49C17 49.553 17.448 50 18 50L46 50C46.553 50 47 49.553 47 49L47 16C47 15.448 46.553 15 46 15L18 15 z M 24 23L41 23C41.553 23 42 23.448 42 24C42 24.552 41.553 25 41 25L24 25C23.448 25 23 24.552 23 24C23 23.448 23.448 23 24 23 z M 24 29L36 29C36.553 29 37 29.447 37 30C37 30.553 36.553 31 36 31L24 31C23.448 31 23 30.553 23 30C23 29.447 23.448 29 24 29 z M 24 35L41 35C41.553 35 42 35.447 42 36C42 36.553 41.553 37 41 37L24 37C23.448 37 23 36.553 23 36C23 35.447 23.448 35 24 35 z M 24 41L36 41C36.553 41 37 41.447 37 42C37 42.553 36.553 43 36 43L24 43C23.448 43 23 42.553 23 42C23 41.447 23.448 41 24 41 z" fill="#B8B8B8" />
</svg>