<?xml version="1.0" encoding="utf-8"?>
<svg xmlns="http://www.w3.org/2000/svg" viewBox="0 0 24 24" width="96" height="96">
  <path d="M20.84,12.086l-1.891-2.969C18.512,5.113,15.121,2,11,2c-4.418,0-8,3.582-8,8c0,5.004,3,4.43,3,9.238V22h9v-3h2c1.105,0,2-0.895,2-2v-2.98l1.426-0.598C20.945,13.199,21.145,12.563,20.84,12.086z M18.223,12.18L17,12.695V17h-4v3H8v-0.762c0-3.004-1.016-4.473-1.836-5.652C5.488,12.609,5,11.902,5,10c0-3.309,2.691-6,6-6c3.063,0,5.629,2.293,5.961,5.336l0.051,0.465l0.25,0.391l1.203,1.887L18.223,12.18z" fill="#B8B8B8" />
</svg>