<?xml version="1.0" encoding="utf-8"?>
<svg xmlns="http://www.w3.org/2000/svg" viewBox="0 0 128 128" width="512" height="512">
  <path d="M32 6C24.8 6 19 11.8 19 19L19 109C19 116.3 24.9 122 30 122L96 122C99.5 122 102.69922 120.59922 105.19922 118.19922C107.69922 115.69922 109 112.5 109 109L109 42C109 40.3 107.7 39 106 39C104.3 39 103 40.3 103 42L103 109C103 110.9 102.3 112.6 101 114C99.7 115.4 97.9 116.09961 96 116.09961L30 116.09961C28.3 116.09961 25 113.09961 25 109.09961L25 19C25 15.1 28.1 12 32 12L83 12L83 19C83 26.2 88.8 32 96 32L105.59961 32L106 32C107.2 32 108.30078 31.199219 108.80078 30.199219C109.00078 29.799219 109.09961 29.4 109.09961 29L109.09961 28.599609C108.99961 22.599609 106.60039 16.999219 102.40039 12.699219C97.900391 8.3992187 92.1 6 86 6L32 6 z M 89 12.300781C92.4 12.900781 95.5 14.5 98 17C100.5 19.5 102.09922 22.6 102.69922 26L96 26C92.1 26 89 22.9 89 19L89 12.300781 z M 52 26C50.3 26 49 27.3 49 29C49 30.7 50.3 32 52 32L76 32C77.7 32 79 30.7 79 29C79 27.3 77.7 26 76 26L52 26 z M 42 56C40.3 56 39 57.3 39 59C39 60.7 40.3 62 42 62L86 62C87.7 62 89 60.7 89 59C89 57.3 87.7 56 86 56L42 56 z M 42 71C40.3 71 39 72.3 39 74C39 75.7 40.3 77 42 77L86 77C87.7 77 89 75.7 89 74C89 72.3 87.7 71 86 71L42 71 z M 42.199219 86C40.499219 86 39.199219 87.3 39.199219 89C39.199219 90.7 40.499219 92 42.199219 92L71.199219 92C72.899219 92 74.199219 90.7 74.199219 89C74.199219 87.3 72.899219 86 71.199219 86L42.199219 86 z M 86 86 A 3 3 0 0 0 83 89 A 3 3 0 0 0 86 92 A 3 3 0 0 0 89 89 A 3 3 0 0 0 86 86 z" fill="#B8B8B8" />
</svg>