<?xml version="1.0" encoding="utf-8"?>
<svg xmlns="http://www.w3.org/2000/svg" viewBox="0 0 26 26" width="208" height="208">
  <path d="M16.15625 0C16.027344 0 15.898438 0.0351563 15.78125 0.09375L11.53125 4.28125C11.277344 4.519531 11.0625 4.691406 11.0625 5C11.0625 5.308594 11.246094 5.464844 11.53125 5.71875L15.78125 9.90625C16.035156 10.035156 16.351563 10.023438 16.59375 9.875C16.839844 9.730469 17 9.46875 17 9.1875L17 7L19 7C20.679688 7 22 8.320313 22 10L22 16C22 17.679688 20.679688 19 19 19C18.277344 18.988281 17.609375 19.367188 17.246094 19.992188C16.878906 20.613281 16.878906 21.386719 17.246094 22.007813C17.609375 22.632813 18.277344 23.011719 19 23C22.84375 23 26 19.84375 26 16L26 10C26 6.15625 22.84375 3 19 3L17 3L17 0.8125C17 0.53125 16.839844 0.269531 16.59375 0.125C16.460938 0.046875 16.308594 0 16.15625 0 Z M 7 3C3.15625 3 0 6.15625 0 10L0 16C0 19.84375 3.15625 23 7 23L9 23L9 25.1875C9 25.46875 9.160156 25.730469 9.40625 25.875C9.539063 25.957031 9.691406 26 9.84375 26C9.972656 26 10.101563 25.964844 10.21875 25.90625L14.46875 21.71875C14.722656 21.480469 14.9375 21.308594 14.9375 21C14.9375 20.695313 14.753906 20.535156 14.46875 20.28125L10.21875 16.09375C9.964844 15.964844 9.648438 15.976563 9.40625 16.125C9.160156 16.269531 9 16.53125 9 16.8125L9 19L7 19C5.320313 19 4 17.679688 4 16L4 10C4 8.320313 5.320313 7 7 7C7.722656 7.011719 8.390625 6.632813 8.753906 6.007813C9.121094 5.386719 9.121094 4.613281 8.753906 3.992188C8.390625 3.367188 7.722656 2.988281 7 3Z" fill="#B8B8B8" />
</svg>