<?xml version="1.0" encoding="utf-8"?>
<svg xmlns="http://www.w3.org/2000/svg" viewBox="0 0 50 50" width="500" height="500">
  <path d="M8 4C6.3 4 5 5.3 5 7L5 43C5 44.7 6.3 46 8 46L44 46C45.7 46 47 44.7 47 43L47 13.199219C47 12.899219 46.899219 12.7 46.699219 12.5L38.5 4.3007812C38.3 4.1007812 38.100781 4 37.800781 4L8 4 z M 13 6L37 6L37 18C37 19.1 36.1 20 35 20L15 20C13.9 20 13 19.1 13 18L13 6 z M 29 9L29 17L33 17L33 9L29 9 z M 15 27L37 27C38.1 27 39 27.9 39 29L39 44L13 44L13 29C13 27.9 13.9 27 15 27 z M 8 41L10 41L10 43L8 43L8 41 z M 42 41L44 41L44 43L42 43L42 41 z" fill="#B8B8B8" />
</svg>